<!-- Viddel wordmark v0.1 (Figma export). currentColor = matches body text / theme. -->
<svg viewBox="0 0 61 17" fill="none" xmlns="http://www.w3.org/2000/svg">
<path d="M15.7425 2.58661C15.4163 2.58661 15.1461 2.48099 14.932 2.26974C14.7179 2.04843 14.6108 1.77683 14.6108 1.45493C14.6108 1.14309 14.7179 0.87651 14.932 0.655204C15.1461 0.433896 15.4163 0.323242 15.7425 0.323242C16.079 0.323242 16.3491 0.433896 16.5531 0.655204C16.7672 0.87651 16.8742 1.14309 16.8742 1.45493C16.8742 1.77683 16.7672 2.04843 16.5531 2.26974C16.3491 2.48099 16.079 2.58661 15.7425 2.58661Z" fill="currentColor"/>
<path d="M58.7219 16.0224V0H60.9999V16.0224H58.7219Z" fill="currentColor"/>
<path d="M51.0097 16.3494C49.8398 16.3494 48.8116 16.0951 47.9251 15.5864C47.0458 15.0705 46.3592 14.3548 45.865 13.4392C45.3782 12.5164 45.1348 11.4482 45.1348 10.2347C45.1348 8.94855 45.3746 7.83316 45.8541 6.88852C46.341 5.94389 47.0168 5.21361 47.8815 4.6977C48.7462 4.18179 49.7526 3.92383 50.9007 3.92383C52.0996 3.92383 53.1205 4.20358 53.9635 4.7631C54.8064 5.31534 55.4349 6.10375 55.8491 7.12831C56.2705 8.15288 56.4377 9.37 56.3505 10.7797H54.0724V9.95131C54.0579 8.58523 53.7963 7.5752 53.2877 6.92122C52.7863 6.26724 52.0197 5.94026 50.9879 5.94026C49.847 5.94026 48.9896 6.29994 48.4155 7.01932C47.8415 7.73869 47.5545 8.77779 47.5545 10.1366C47.5545 11.43 47.8415 12.4328 48.4155 13.1449C48.9896 13.8497 49.818 14.2022 50.9007 14.2022C51.6128 14.2022 52.2268 14.0423 52.7427 13.7226C53.2659 13.3956 53.6728 12.9305 53.9635 12.3274L56.1979 13.0359C55.7401 14.0895 55.0461 14.907 54.116 15.4883C53.1859 16.0624 52.1505 16.3494 51.0097 16.3494ZM46.8133 10.7797V9.00305H55.2169V10.7797H46.8133Z" fill="currentColor"/>
<path d="M37.494 16.3491C36.3967 16.3491 35.4485 16.0766 34.6492 15.5316C33.8571 14.9866 33.2431 14.2455 32.8071 13.3081C32.3784 12.3635 32.1641 11.3026 32.1641 10.1254C32.1641 8.94099 32.3821 7.88373 32.818 6.95363C33.254 6.01626 33.8717 5.27872 34.671 4.741C35.4775 4.19602 36.4331 3.92353 37.5376 3.92353C38.6493 3.92353 39.5831 4.19602 40.3388 4.741C41.1017 5.27872 41.6758 6.01626 42.0609 6.95363C42.4533 7.89099 42.6495 8.94825 42.6495 10.1254C42.6495 11.3026 42.4533 12.3598 42.0609 13.2972C41.6685 14.2346 41.0908 14.9794 40.3279 15.5316C39.5649 16.0766 38.6203 16.3491 37.494 16.3491ZM37.8101 14.2891C38.5585 14.2891 39.1689 14.111 39.6412 13.755C40.1135 13.3989 40.4587 12.9084 40.6767 12.2835C40.8947 11.6586 41.0036 10.9393 41.0036 10.1254C41.0036 9.31158 40.891 8.5922 40.6658 7.96729C40.4478 7.34238 40.1062 6.85553 39.6412 6.50674C39.1834 6.15795 38.5985 5.98356 37.8864 5.98356C37.1307 5.98356 36.5094 6.16885 36.0225 6.53944C35.5357 6.91003 35.1724 7.40778 34.9326 8.03269C34.7 8.6576 34.5838 9.35517 34.5838 10.1254C34.5838 10.9029 34.7 11.6078 34.9326 12.2399C35.1724 12.8649 35.5284 13.3626 36.0007 13.7332C36.4803 14.1038 37.0834 14.2891 37.8101 14.2891ZM41.0036 16.0221V7.55311H40.7421V0.32666H43.031V16.0221H41.0036Z" fill="currentColor"/>
<path d="M24.5234 16.3491C23.4262 16.3491 22.4779 16.0766 21.6786 15.5316C20.8866 14.9866 20.2725 14.2455 19.8366 13.3081C19.4078 12.3635 19.1935 11.3026 19.1935 10.1254C19.1935 8.94099 19.4115 7.88373 19.8475 6.95363C20.2834 6.01626 20.9011 5.27872 21.7004 4.741C22.507 4.19602 23.4625 3.92353 24.567 3.92353C25.6787 3.92353 26.6125 4.19602 27.3682 4.741C28.1312 5.27872 28.7052 6.01626 29.0903 6.95363C29.4827 7.89099 29.6789 8.94825 29.6789 10.1254C29.6789 11.3026 29.4827 12.3598 29.0903 13.2972C28.6979 14.2346 28.1203 14.9794 27.3573 15.5316C26.5943 16.0766 25.6497 16.3491 24.5234 16.3491ZM24.8395 14.2891C25.5879 14.2891 26.1983 14.111 26.6706 13.755C27.1429 13.3989 27.4881 12.9084 27.7061 12.2835C27.9241 11.6586 28.0331 10.9393 28.0331 10.1254C28.0331 9.31158 27.9204 8.5922 27.6952 7.96729C27.4772 7.34238 27.1357 6.85553 26.6706 6.50674C26.2128 6.15795 25.6279 5.98356 24.9158 5.98356C24.1601 5.98356 23.5388 6.16885 23.0519 6.53944C22.5651 6.91003 22.2018 7.40778 21.962 8.03269C21.7295 8.6576 21.6132 9.35517 21.6132 10.1254C21.6132 10.9029 21.7295 11.6078 21.962 12.2399C22.2018 12.8649 22.5578 13.3626 23.0301 13.7332C23.5097 14.1038 24.1128 14.2891 24.8395 14.2891ZM28.0331 16.0221V7.55311H27.7715V0.32666H30.0604V16.0221H28.0331Z" fill="currentColor"/>
<path d="M14.5883 16.0226V4.25098H16.8663V16.0226H14.5883Z" fill="currentColor"/>
<path d="M5.10102 16.0221L0 0.32666H2.36522L6.71416 13.7223L11.1176 0.32666H13.4828L8.3818 16.0221H5.10102Z" fill="currentColor"/>
</svg>
